<svg width="32" height="32" fill="none" xmlns="http://www.w3.org/2000/svg"><path d="M13.029 5.6H7.457A1.857 1.857 0 0 0 5.6 7.457v5.571c0 1.026.832 1.858 1.857 1.858h5.572a1.857 1.857 0 0 0 1.857-1.858V7.457A1.857 1.857 0 0 0 13.03 5.6Zm10.585 0h-5.571a1.857 1.857 0 0 0-1.857 1.857v5.571c0 1.026.831 1.858 1.857 1.858h5.571a1.857 1.857 0 0 0 1.857-1.858V7.457A1.857 1.857 0 0 0 23.614 5.6ZM13.029 16.186H7.457A1.857 1.857 0 0 0 5.6 18.043v5.572c0 1.025.832 1.857 1.857 1.857h5.572a1.857 1.857 0 0 0 1.857-1.858v-5.57a1.857 1.857 0 0 0-1.857-1.858Zm10.585 0h-5.571a1.857 1.857 0 0 0-1.857 1.857v5.572c0 1.025.831 1.857 1.857 1.857h5.571a1.857 1.857 0 0 0 1.857-1.858v-5.57a1.857 1.857 0 0 0-1.857-1.858Z" fill="#F3F3F3"/></svg>