<svg width="44" height="44" fill="none" xmlns="http://www.w3.org/2000/svg"><g clip-path="url(#a)" fill="#2E8EC7" stroke="#E9E9E9" stroke-linecap="round" stroke-linejoin="round"><path d="M19.52 36.46C15.304 40.705 8.136 42.111 4 37.866c5.514-5.706 0-8.463 4.135-12.598A7.996 7.996 0 1 1 19.41 36.57l.11-.11Z"/><path d="M38.397 5.602a5.512 5.512 0 0 0-4.08-1.599 5.513 5.513 0 0 0-3.97 1.847L15.516 22.391a7.857 7.857 0 0 1 4.162 2.288 8.27 8.27 0 0 1 2.123 3.612l16.348-14.639a5.514 5.514 0 0 0 1.847-3.942 5.514 5.514 0 0 0-1.6-4.108Z"/></g><defs><clipPath id="a"><path fill="#fff" d="M0 0h44v44H0z"/></clipPath></defs></svg>