<svg width="32" height="32" fill="none" xmlns="http://www.w3.org/2000/svg"><path fill-rule="evenodd" clip-rule="evenodd" d="m7.783 9.128 1.764 3.529h12.907l1.764-3.529L25.983 5.6H6.018l1.765 3.528Zm-2.18 7.301L5.6 26.4l1.671-1.334 1.67-1.335-.001-5.316-.002-5.316-1.666-3.32-1.666-3.32-.003 9.971Zm19.114-6.627-1.66 3.32.001 5.303.001 5.305 1.67 1.335L26.4 26.4v-9.96c0-5.477-.005-9.958-.011-9.958-.007 0-.759 1.494-1.672 3.32ZM7.844 6.76c-.117.047-.2.182-.2.322 0 .052.522 1.14 1.16 2.418.96 1.919 1.183 2.33 1.28 2.368.161.061 11.671.061 11.832 0 .098-.037.32-.45 1.28-2.368.639-1.277 1.162-2.372 1.162-2.433a.42.42 0 0 0-.09-.221l-.088-.11-8.117-.009c-4.622-.005-8.162.01-8.22.033Zm.774.719c0 .012.162.347.36.743l.359.72h6.292V7.457h-3.505c-1.928 0-3.506.01-3.506.023Zm7.754.72v.743h6.292l.36-.72c.197-.396.358-.73.358-.743 0-.013-1.577-.023-3.505-.023h-3.505V8.2Zm-6.64 1.508c0 .013.162.347.36.743l.359.72h5.178V9.685h-2.948c-1.622 0-2.948.01-2.948.023Zm6.64.72v.743h5.178l.36-.72c.197-.396.358-.73.358-.743 0-.012-1.326-.023-2.948-.023h-2.948v.743Zm-6.686 7.986v5.014h12.629V13.4H9.686v5.014Z" fill="#F3F3F3"/></svg>