<svg width="45" height="44" fill="none" xmlns="http://www.w3.org/2000/svg"><path d="M11.536 42.167h22.46a3.373 3.373 0 0 0 3.37-3.37V15.065h-7.862a3.373 3.373 0 0 1-3.369-3.37v-7.86h-14.6a3.373 3.373 0 0 0-3.369 3.369v31.595a3.373 3.373 0 0 0 3.37 3.369Zm4.492-22.536h13.476a1.122 1.122 0 1 1 0 2.246H16.028a1.122 1.122 0 1 1 0-2.246Zm0 4.492h13.476a1.122 1.122 0 1 1 0 2.246H16.028a1.122 1.122 0 1 1 0-2.246Zm0 4.492h13.476a1.122 1.122 0 1 1 0 2.247H16.028a1.122 1.122 0 1 1 0-2.247Zm0 4.493h8.984a1.122 1.122 0 1 1 0 2.246h-8.984a1.122 1.122 0 1 1 0-2.246Z" fill="#2E8EC7"/><path d="M29.504 12.818h7.204L28.38 4.492v7.203c0 .62.504 1.123 1.123 1.123Z" fill="#2E8EC7"/></svg>