<svg width="44" height="44" fill="none" xmlns="http://www.w3.org/2000/svg"><path d="M36.853 16.46c6.363 8.901 1.495 19.097-.86 23.074a4.5 4.5 0 0 1-1.358 1.391c-.55.36-1.172.596-1.823.692-4.614.79-16.1 1.673-22.273-7.228-6.077-8.397-5.822-23.17-5.281-30.208a3.295 3.295 0 0 1 .427-1.494c.26-.457.626-.847 1.067-1.136a3.358 3.358 0 0 1 3.024-.337c6.84 1.957 21.095 6.85 27.077 15.246Z" fill="#2E8EC7"/><path d="M15.408 13.525a164.92 164.92 0 0 1 19.09 27.556l-19.09-27.556Z" fill="#F3F3F3"/><path d="M15.408 13.525a164.92 164.92 0 0 1 19.09 27.556" stroke="#F3F3F3" stroke-width="2" stroke-linecap="round" stroke-linejoin="round"/></svg>