<svg width="45" height="44" fill="none" xmlns="http://www.w3.org/2000/svg"><path d="M24.105 17.07c-4.097 0-7.43 3.333-7.43 7.43 0 4.098 3.333 7.431 7.43 7.431 4.098 0 7.43-3.333 7.43-7.43 0-4.098-3.332-7.431-7.43-7.431Zm4.412 6.031-5.323 5.323a1.143 1.143 0 0 1-1.619 0l-2.034-2.034a1.144 1.144 0 1 1 1.618-1.618l1.225 1.225 4.515-4.514a1.144 1.144 0 1 1 1.618 1.618Z" fill="#2E8EC7"/><path d="m40.672 15.582-.001-.03c-.018-.404-.03-.808-.035-1.213a4.133 4.133 0 0 0-3.892-4.049c-4.484-.25-7.953-1.712-10.917-4.601l-.025-.024a2.496 2.496 0 0 0-3.392 0l-.026.024c-2.963 2.889-6.432 4.35-10.916 4.601a4.133 4.133 0 0 0-3.892 4.05c-.006.404-.017.808-.035 1.211l-.002.07c-.087 4.573-.196 10.264 1.708 15.429 1.047 2.84 2.632 5.31 4.712 7.339 2.368 2.311 5.47 4.146 9.22 5.454a2.835 2.835 0 0 0 1.475.102c.13-.025.256-.06.38-.103 3.745-1.31 6.844-3.146 9.21-5.457 2.079-2.03 3.664-4.5 4.712-7.34 1.91-5.181 1.803-10.882 1.716-15.463ZM24.105 34.22c-5.36 0-9.72-4.36-9.72-9.72 0-5.359 4.36-9.719 9.72-9.719s9.72 4.36 9.72 9.72-4.36 9.719-9.72 9.719Z" fill="#2E8EC7"/></svg>