<svg width="44" height="44" fill="none" xmlns="http://www.w3.org/2000/svg"><path d="M34.862 2.474C33.792 1.478 32.423 1 31.043 1a6.122 6.122 0 0 0-4.291 1.765l-.502.496-.502-.498A6.127 6.127 0 0 0 21.457 1c-1.38 0-2.75.478-3.82 1.474a5.601 5.601 0 0 0-.125 8.102l8.738 8.645 8.738-8.645a5.601 5.601 0 0 0-.126-8.102Zm8.577 21.149c-1.343-.9-2.926-.646-4.327.155-1.401.8-9.447 7.606-9.447 7.606l-7.92.002c-.368 0-.767-.41-.767-.773 0-.427.376-.76.767-.76h4.846c1.696 0 3.594-1.093 3.594-3.037 0-2.065-1.898-3.037-3.594-3.037-2.943 0-3.515.012-3.515.012-1.179 0-2.375-.07-3.296-.557a9.168 9.168 0 0 0-4.153-.975c-2.535 0-4.806 1.001-6.362 2.579L1 32.888 10.21 42l3.069-3.037h15.543c1.547 0 3.04-.561 4.197-1.578l10.524-11.68c.643-.565.606-1.604-.104-2.082Z" fill="#2E8EC7"/></svg>