<svg width="20" height="21" fill="none" xmlns="http://www.w3.org/2000/svg"><path d="M18.308 15.775c0 .3-.067.608-.208.908-.142.3-.325.583-.567.85-.408.45-.858.775-1.367.983a4.17 4.17 0 0 1-1.625.317c-.85 0-1.758-.2-2.716-.608a14.634 14.634 0 0 1-2.867-1.65 23.961 23.961 0 0 1-2.733-2.334A23.68 23.68 0 0 1 3.9 11.516c-.683-.95-1.233-1.9-1.633-2.841-.4-.95-.6-1.859-.6-2.725 0-.567.1-1.109.3-1.609.2-.508.516-.975.958-1.391.533-.525 1.117-.784 1.733-.784.233 0 .467.05.675.15.217.1.409.25.558.467l1.934 2.725c.15.208.258.4.333.583.075.175.117.35.117.509 0 .2-.059.4-.175.591a2.835 2.835 0 0 1-.467.592L7 8.44a.446.446 0 0 0-.133.334c0 .066.008.125.024.191.026.067.05.117.067.167.15.275.409.633.775 1.067a28.5 28.5 0 0 0 1.208 1.316c.45.442.884.85 1.325 1.225.434.367.792.617 1.075.767.042.017.092.042.15.067a.575.575 0 0 0 .209.033c.142 0 .25-.05.341-.142l.634-.625c.208-.208.408-.366.6-.466a1.11 1.11 0 0 1 .591-.175c.159 0 .325.033.509.108a3.2 3.2 0 0 1 .583.325l2.758 1.958c.217.15.367.325.459.534.083.208.133.416.133.65Z" fill="#2E8EC7"/></svg>