<svg width="32" height="32" fill="none" xmlns="http://www.w3.org/2000/svg"><path d="M19.063 5.073a.325.325 0 0 1 .47-.042l1.197 1.056-3.77 4.713h2.497l2.738-3.422 2.148 1.894a.325.325 0 0 1 .034.452L23.48 10.8h2.527a2.275 2.275 0 0 0-.375-2.99l-4.81-4.241a2.275 2.275 0 0 0-3.29.299L12.068 10.8h2.483l4.511-5.726ZM7.225 10.149a.975.975 0 1 0 0 1.95h16.9a4.225 4.225 0 0 1 4.225 4.226v8.45A4.225 4.225 0 0 1 24.125 29h-15.6A4.225 4.225 0 0 1 4.3 24.774v-13.65A2.925 2.925 0 0 1 7.225 8.2h5.616l-1.55 1.95H7.226ZM20.55 20.876c0 .538.437.974.975.974h2.6a.975.975 0 1 0 0-1.95h-2.6a.975.975 0 0 0-.975.976Z" fill="#F3F3F3"/></svg>