<svg width="44" height="44" viewBox="0 0 44 44" fill="none" xmlns="http://www.w3.org/2000/svg">
<g clip-path="url(#clip0_68_4724)">
<path d="M19.5206 36.4601C15.3027 40.7055 8.13514 42.1115 4 37.866C9.51352 32.1595 4 29.4028 8.13514 25.2676C8.86123 24.4588 9.74463 23.8066 10.7313 23.3507C11.7181 22.8949 12.7874 22.645 13.8739 22.6164C14.9604 22.5878 16.0414 22.7811 17.0507 23.1844C18.0601 23.5877 18.9765 24.1926 19.7442 24.9621C20.5118 25.7316 21.1144 26.6496 21.5153 27.6599C21.9161 28.6702 22.1068 29.7516 22.0755 30.8381C22.0443 31.9246 21.7918 32.9933 21.3336 33.9789C20.8753 34.9644 20.2209 35.8462 19.4103 36.5704L19.5206 36.4601Z" fill="#2E8EC7" stroke="#E9E9E9" stroke-linecap="round" stroke-linejoin="round"/>
<path d="M38.3967 5.60233C37.8621 5.0711 37.2242 4.65513 36.5224 4.38012C35.8207 4.10511 35.07 3.9769 34.3167 4.00341C33.564 4.02387 32.8234 4.19831 32.1407 4.51598C31.4579 4.83365 30.8475 5.2878 30.347 5.85044L15.5156 22.391C17.106 22.7059 18.5601 23.5052 19.6783 24.6791C20.6841 25.6808 21.4151 26.9245 21.801 28.2905L38.1486 13.6521C38.7079 13.1547 39.1602 12.5488 39.4777 11.871C39.7952 11.1933 39.9715 10.458 39.9957 9.70991C40.026 8.95209 39.8996 8.19616 39.6245 7.48939C39.3494 6.78262 38.9314 6.14021 38.3967 5.60233Z" fill="#2E8EC7" stroke="#E9E9E9" stroke-linecap="round" stroke-linejoin="round"/>
</g>
<defs>
<clipPath id="clip0_68_4724">
<rect width="44" height="44" fill="white"/>
</clipPath>
</defs>
</svg>
