<svg width="45" height="44" viewBox="0 0 45 44" fill="none" xmlns="http://www.w3.org/2000/svg">
<path d="M11.5356 42.1668H33.9966C35.8544 42.1668 37.3657 40.6555 37.3657 38.7977V15.064H29.5044C27.6466 15.064 26.1353 13.5526 26.1353 11.6948V3.8335H11.5356C9.67783 3.8335 8.1665 5.34482 8.1665 7.20264V38.7977C8.1665 40.6555 9.67783 42.1668 11.5356 42.1668ZM16.0278 19.631H29.5044C30.1251 19.631 30.6274 20.1333 30.6274 20.7541C30.6274 21.3748 30.1251 21.8771 29.5044 21.8771H16.0278C15.4071 21.8771 14.9048 21.3748 14.9048 20.7541C14.9048 20.1333 15.4071 19.631 16.0278 19.631ZM16.0278 24.1232H29.5044C30.1251 24.1232 30.6274 24.6255 30.6274 25.2463C30.6274 25.867 30.1251 26.3693 29.5044 26.3693H16.0278C15.4071 26.3693 14.9048 25.867 14.9048 25.2463C14.9048 24.6255 15.4071 24.1232 16.0278 24.1232ZM16.0278 28.6154H29.5044C30.1251 28.6154 30.6274 29.1177 30.6274 29.7384C30.6274 30.3592 30.1251 30.8615 29.5044 30.8615H16.0278C15.4071 30.8615 14.9048 30.3592 14.9048 29.7384C14.9048 29.1177 15.4071 28.6154 16.0278 28.6154ZM16.0278 33.1076H25.0122C25.633 33.1076 26.1353 33.6099 26.1353 34.2306C26.1353 34.8514 25.633 35.3537 25.0122 35.3537H16.0278C15.4071 35.3537 14.9048 34.8514 14.9048 34.2306C14.9048 33.6099 15.4071 33.1076 16.0278 33.1076Z" fill="#2E8EC7"/>
<path d="M29.5044 12.8179H36.7077L28.3813 4.49158V11.6949C28.3813 12.3145 28.8848 12.8179 29.5044 12.8179Z" fill="#2E8EC7"/>
</svg>
