<svg width="45" height="44" viewBox="0 0 45 44" fill="none" xmlns="http://www.w3.org/2000/svg">
<path d="M24.1053 17.0698C20.0078 17.0698 16.6743 20.4033 16.6743 24.5004C16.6743 28.598 20.0078 31.9313 24.1053 31.9313C28.2026 31.9313 31.5358 28.598 31.5358 24.5005C31.5358 20.4032 28.2026 17.0698 24.1053 17.0698ZM28.517 23.1011L23.1936 28.4245C23.0874 28.5309 22.9613 28.6153 22.8224 28.6729C22.6835 28.7305 22.5346 28.76 22.3842 28.7599C22.2339 28.7601 22.0851 28.7305 21.9463 28.673C21.8074 28.6154 21.6814 28.531 21.5753 28.4245L19.5409 26.3901C19.094 25.9435 19.094 25.219 19.5409 24.7721C19.9875 24.3252 20.712 24.3252 21.1589 24.7721L22.3842 25.9974L26.8989 21.4831C27.3455 21.0361 28.0701 21.0361 28.517 21.4831C28.9639 21.9297 28.9639 22.6542 28.517 23.1011Z" fill="#2E8EC7"/>
<path d="M40.6719 15.5817L40.6707 15.5514C40.653 15.1476 40.6413 14.7436 40.6356 14.3395C40.6038 12.1891 38.8943 10.4103 36.7437 10.2902C32.2597 10.0399 28.7909 8.57777 25.8271 5.68888L25.8018 5.66481C24.835 4.7784 23.3768 4.7784 22.4097 5.66481L22.3844 5.68888C19.4206 8.57777 15.9518 10.0399 11.4678 10.2904C9.31744 10.4103 7.60769 12.1891 7.57585 14.3397C7.57026 14.7437 7.55858 15.1477 7.54081 15.5514L7.53898 15.6218C7.45177 20.1943 7.34345 25.8848 9.24714 31.0499C10.294 33.8903 11.8793 36.3593 13.9588 38.3889C16.3273 40.7002 19.4295 42.5352 23.1792 43.8426C23.3026 43.8856 23.4288 43.9199 23.557 43.9455C23.7391 43.9819 23.9225 44 24.1057 44C24.289 44 24.4726 43.9819 24.6544 43.9455C24.7831 43.9198 24.9098 43.8852 25.0337 43.8419C28.7789 42.5322 31.8779 40.6964 34.2443 38.3853C36.323 36.3552 37.9083 33.8855 38.956 31.0446C40.8668 25.864 40.7588 20.1627 40.6719 15.5817ZM24.1051 34.2199C18.7457 34.2199 14.3858 29.86 14.3858 24.5006C14.3858 19.1412 18.7458 14.7813 24.1051 14.7813C29.4643 14.7813 33.8245 19.1412 33.8245 24.5006C33.8245 29.8601 29.4643 34.2199 24.1051 34.2199Z" fill="#2E8EC7"/>
</svg>
