<svg width="243" height="61" viewBox="0 0 243 61" fill="none" xmlns="http://www.w3.org/2000/svg">
<path d="M0 34.8569L34.7949 -0.000244141L69.5898 34.8569H58.4057L34.7949 10.5814L16.1548 29.2549L37.9016 51.0406L32.3095 56.6426L10.5627 34.8569H0Z" fill="#2E8EC7"/>
<path d="M34.7947 22.408L27.96 29.2549L49.7068 51.0406L39.7654 60.9998H59.0268V46.6835L34.7947 22.408Z" fill="#2E8EC7"/>
<path d="M10.5625 61V47.3062L24.2319 61H10.5625Z" fill="#2E8EC7"/>
<path d="M81.3189 13.696H88.8389C91.2496 13.696 93.1162 14.2827 94.4389 15.456C95.8256 16.672 96.5189 18.4 96.5189 20.64C96.5189 22.7307 95.9109 24.4054 94.6949 25.664C93.4576 26.9227 91.6442 27.552 89.2549 27.552H86.2469V35.04H81.3189V13.696ZM86.2469 17.728V23.52H88.0069C89.2229 23.52 90.1082 23.2534 90.6629 22.72C91.1962 22.1867 91.4629 21.4827 91.4629 20.608C91.4629 19.712 91.1962 19.0187 90.6629 18.528C90.1082 17.9947 89.1909 17.728 87.9109 17.728H86.2469ZM97.4234 13.696H102.927L107.407 23.552L111.695 13.696H117.007L107.247 35.04H101.935L105.039 28.896L97.4234 13.696ZM124.466 13.696V21.824H132.978V13.696H137.906V35.04H132.978V25.984H124.466V35.04H119.538V13.696H124.466ZM153.225 13.216C156.596 13.216 159.348 14.2507 161.481 16.32C163.7 18.4747 164.809 21.1627 164.809 24.384C164.809 27.5627 163.7 30.2294 161.481 32.384C159.326 34.4747 156.574 35.52 153.225 35.52C149.854 35.52 147.081 34.4747 144.905 32.384C143.86 31.4027 143.038 30.2294 142.441 28.864C141.865 27.4774 141.577 26.0054 141.577 24.448C141.577 22.9547 141.876 21.4827 142.473 20.032C143.092 18.56 143.892 17.3334 144.873 16.352C146.964 14.2614 149.748 13.216 153.225 13.216ZM153.193 17.76C151.294 17.76 149.737 18.368 148.521 19.584C147.262 20.8 146.633 22.4107 146.633 24.416C146.633 26.336 147.284 27.936 148.585 29.216C149.822 30.3894 151.348 30.976 153.161 30.976C155.102 30.976 156.681 30.368 157.897 29.152C159.134 27.9574 159.753 26.368 159.753 24.384C159.753 22.4214 159.134 20.8214 157.897 19.584C156.638 18.368 155.07 17.76 153.193 17.76Z" fill="#28292E"/>
<path d="M85.5604 46.8599H87.0444L84.6644 54.6019C84.1604 56.2259 83.4744 56.7999 81.9904 56.7999H81.6404V55.5259H82.0324C82.7884 55.5259 83.1104 55.1339 83.4044 54.1539L83.5164 53.7899L81.0524 46.8599H82.5504L84.1464 51.6339L85.5604 46.8599ZM89.4641 56.8139C87.9241 56.8139 86.9721 55.8339 86.9721 54.1119V51.7879C86.9721 50.0799 87.9241 49.0999 89.4641 49.0999C91.0601 49.0999 91.9701 50.0799 92.0261 51.7879H90.6541C90.6261 50.8499 90.2201 50.4019 89.4781 50.4019C88.7641 50.4019 88.3441 50.8499 88.3441 51.7879V54.1119C88.3441 55.0499 88.7641 55.5119 89.4781 55.5119C90.2341 55.5119 90.6541 55.0499 90.6961 54.1119H92.0541C92.0121 55.8339 91.0321 56.8139 89.4641 56.8139ZM97.2975 49.2819V50.5559H95.6035V56.6599H94.2595V50.5559H92.5795V49.2819H97.2975ZM100.58 49.0999C102.162 49.0999 102.974 50.0659 102.974 51.7599V56.6599H101.868L101.77 55.9739C101.476 56.4639 100.944 56.8419 100.132 56.8419C98.7737 56.8419 97.8637 55.9459 97.8637 54.5599C97.8637 53.0479 98.9137 52.2779 100.538 52.2779H101.616V51.7599C101.616 50.8919 101.294 50.4019 100.552 50.4019C99.9497 50.4019 99.5017 50.7239 99.4317 51.3819H98.0737C98.1437 49.9679 99.0957 49.0999 100.58 49.0999ZM101.616 54.4619V53.4539H100.538C99.7117 53.4539 99.2357 53.8319 99.2357 54.5599C99.2357 55.2319 99.6697 55.6379 100.412 55.6379C101.154 55.6379 101.616 55.1619 101.616 54.4619ZM108.015 49.2819H109.373V56.6599H108.015V53.5099H105.957V56.6599H104.599V49.2819H105.957V52.2499H108.015V49.2819ZM113.42 56.8279C111.824 56.8279 110.83 55.8339 110.83 54.0279V51.8999C110.83 50.0939 111.824 49.0999 113.42 49.0999C115.03 49.0999 116.024 50.0939 116.024 51.8999V54.0279C116.024 55.8339 115.03 56.8279 113.42 56.8279ZM113.42 55.5119C114.19 55.5119 114.652 55.0639 114.652 54.0279V51.8999C114.652 50.8639 114.19 50.4159 113.42 50.4159C112.664 50.4159 112.202 50.8639 112.202 51.8999V54.0279C112.202 55.0639 112.664 55.5119 113.42 55.5119ZM121.188 52.7399C122.014 53.0619 122.378 53.7899 122.378 54.5179C122.378 55.8479 121.524 56.6599 119.802 56.6599H117.478V49.2819H119.69C121.188 49.2819 122 50.0519 122 51.3259C122 51.8579 121.706 52.4039 121.188 52.7399ZM118.794 50.4159V52.3059H119.62C120.306 52.3059 120.67 51.9699 120.67 51.3539C120.67 50.7799 120.306 50.4159 119.606 50.4159H118.794ZM119.858 55.5119C120.656 55.5119 121.034 55.1479 121.034 54.4759C121.034 53.8039 120.656 53.4539 119.858 53.4539H118.794V55.5119H119.858ZM127.33 56.6599L125.328 53.4959L124.838 54.0279V56.6599H123.494V49.2819H124.838V52.4179L125.706 51.0599L126.924 49.2819H128.534L126.21 52.4319L128.884 56.6599H127.33ZM131.765 49.0999C133.347 49.0999 134.159 50.0659 134.159 51.7599V56.6599H133.053L132.955 55.9739C132.661 56.4639 132.129 56.8419 131.317 56.8419C129.959 56.8419 129.049 55.9459 129.049 54.5599C129.049 53.0479 130.099 52.2779 131.723 52.2779H132.801V51.7599C132.801 50.8919 132.479 50.4019 131.737 50.4019C131.135 50.4019 130.687 50.7239 130.617 51.3819H129.259C129.329 49.9679 130.281 49.0999 131.765 49.0999ZM132.801 54.4619V53.4539H131.723C130.897 53.4539 130.421 53.8319 130.421 54.5599C130.421 55.2319 130.855 55.6379 131.597 55.6379C132.339 55.6379 132.801 55.1619 132.801 54.4619ZM142.208 49.2819H143.566V56.6599H142.208V53.5099H140.15V56.6599H138.792V49.2819H140.15V52.2499H142.208V49.2819ZM147.529 49.0999C149.111 49.0999 149.923 50.0659 149.923 51.7599V56.6599H148.817L148.719 55.9739C148.425 56.4639 147.893 56.8419 147.081 56.8419C145.723 56.8419 144.813 55.9459 144.813 54.5599C144.813 53.0479 145.863 52.2779 147.487 52.2779H148.565V51.7599C148.565 50.8919 148.243 50.4019 147.501 50.4019C146.899 50.4019 146.451 50.7239 146.381 51.3819H145.023C145.093 49.9679 146.045 49.0999 147.529 49.0999ZM148.565 54.4619V53.4539H147.487C146.661 53.4539 146.185 53.8319 146.185 54.5599C146.185 55.2319 146.619 55.6379 147.361 55.6379C148.103 55.6379 148.565 55.1619 148.565 54.4619ZM155.403 49.2819V50.5559H153.709V56.6599H152.365V50.5559H150.685V49.2819H155.403ZM158.377 49.2819H160.645V56.6599H159.329V54.1679H158.531L157.201 56.6599H155.661L157.229 53.9719C156.473 53.6639 155.899 52.8939 155.899 51.6899C155.899 50.1919 156.907 49.2819 158.377 49.2819ZM159.329 53.0059V50.5139H158.433C157.649 50.5139 157.229 50.9619 157.229 51.7319C157.229 52.5579 157.621 53.0059 158.405 53.0059H159.329ZM168.751 56.6599L166.889 53.4959L166.469 53.9719V56.6599H165.167V53.9859L164.733 53.4959L162.871 56.6599H161.345L163.893 52.4459L161.611 49.2819H163.193L164.285 50.9619C164.565 51.4099 164.873 51.8999 165.167 52.3899V49.2819H166.469V52.3899C166.763 51.8999 167.071 51.4099 167.351 50.9619L168.443 49.2819H170.025L167.743 52.4459L170.277 56.6599H168.751ZM174.46 49.2819H175.818V56.6599H174.46V53.5099H172.402V56.6599H171.044V49.2819H172.402V52.2499H174.46V49.2819ZM179.963 51.8439C181.363 51.8439 182.399 52.8099 182.399 54.2379C182.399 55.6799 181.363 56.6599 179.963 56.6599H177.443V49.3099H178.801V51.8439H179.963ZM183.295 49.3099H184.653V56.6599H183.295V49.3099ZM179.823 55.4279C180.537 55.4279 181.027 54.9799 181.027 54.2239C181.027 53.5099 180.537 53.0759 179.823 53.0759H178.801V55.4279H179.823ZM191.189 56.6599H189.649L188.333 54.0419L187.003 56.6599H185.463L187.507 52.9639L185.617 49.2819H187.115L188.333 51.7879L189.537 49.2819H191.035L189.173 52.9639L191.189 56.6599ZM199.772 49.2819V56.6599H198.414V50.5279H196.356V56.6599H194.998V49.2819H199.772ZM203.818 56.8279C202.222 56.8279 201.228 55.8339 201.228 54.0279V51.8999C201.228 50.0939 202.222 49.0999 203.818 49.0999C205.428 49.0999 206.422 50.0939 206.422 51.8999V54.0279C206.422 55.8339 205.428 56.8279 203.818 56.8279ZM203.818 55.5119C204.588 55.5119 205.05 55.0639 205.05 54.0279V51.8999C205.05 50.8639 204.588 50.4159 203.818 50.4159C203.062 50.4159 202.6 50.8639 202.6 51.8999V54.0279C202.6 55.0639 203.062 55.5119 203.818 55.5119ZM211.485 49.2819V50.5559H209.791V56.6599H208.447V50.5559H206.767V49.2819H211.485ZM214.632 56.8279C213.036 56.8279 212.042 55.8339 212.042 54.0279V51.8999C212.042 50.0939 213.036 49.0999 214.632 49.0999C216.242 49.0999 217.236 50.0939 217.236 51.8999V54.0279C217.236 55.8339 216.242 56.8279 214.632 56.8279ZM214.632 55.5119C215.402 55.5119 215.864 55.0639 215.864 54.0279V51.8999C215.864 50.8639 215.402 50.4159 214.632 50.4159C213.876 50.4159 213.414 50.8639 213.414 51.8999V54.0279C213.414 55.0639 213.876 55.5119 214.632 55.5119ZM217.893 56.7579V55.4559C218.635 55.4559 218.789 54.6579 218.901 53.4819C218.985 52.4179 219.083 50.7099 219.111 49.2819H223.409V56.6599H222.065V50.5279H220.413C220.399 51.3959 220.315 52.8519 220.231 53.7059C220.049 55.7639 219.349 56.7579 217.893 56.7579ZM228.871 56.6599L226.869 53.4959L226.379 54.0279V56.6599H225.035V49.2819H226.379V52.4179L227.247 51.0599L228.465 49.2819H230.075L227.751 52.4319L230.425 56.6599H228.871ZM233.295 56.8279C231.699 56.8279 230.705 55.8339 230.705 54.0279V51.8999C230.705 50.0939 231.699 49.0999 233.295 49.0999C234.905 49.0999 235.899 50.0939 235.899 51.8999V54.0279C235.899 55.8339 234.905 56.8279 233.295 56.8279ZM233.295 55.5119C234.065 55.5119 234.527 55.0639 234.527 54.0279V51.8999C234.527 50.8639 234.065 50.4159 233.295 50.4159C232.539 50.4159 232.077 50.8639 232.077 51.8999V54.0279C232.077 55.0639 232.539 55.5119 233.295 55.5119ZM241.063 52.7399C241.889 53.0619 242.253 53.7899 242.253 54.5179C242.253 55.8479 241.399 56.6599 239.677 56.6599H237.353V49.2819H239.565C241.063 49.2819 241.875 50.0519 241.875 51.3259C241.875 51.8579 241.581 52.4039 241.063 52.7399ZM238.669 50.4159V52.3059H239.495C240.181 52.3059 240.545 51.9699 240.545 51.3539C240.545 50.7799 240.181 50.4159 239.481 50.4159H238.669ZM239.733 55.5119C240.531 55.5119 240.909 55.1479 240.909 54.4759C240.909 53.8039 240.531 53.4539 239.733 53.4539H238.669V55.5119H239.733Z" fill="#28292E"/>
</svg>
