<svg width="20" height="21" viewBox="0 0 20 21" fill="none" xmlns="http://www.w3.org/2000/svg">
<g id="Group">
<g id="vuesax/linear/call">
<g id="call">
<g id="call_2">
<path id="Vector" d="M18.3082 15.7746C18.3082 16.0746 18.2415 16.3829 18.0998 16.6829C17.9582 16.9829 17.7748 17.2663 17.5332 17.5329C17.1248 17.9829 16.6748 18.3079 16.1665 18.5163C15.6665 18.7246 15.1248 18.8329 14.5415 18.8329C13.6915 18.8329 12.7832 18.6329 11.8248 18.2246C10.8665 17.8163 9.90817 17.2663 8.95817 16.5746C7.99984 15.8746 7.0915 15.0996 6.22484 14.2413C5.3665 13.3746 4.5915 12.4663 3.89984 11.5163C3.2165 10.5663 2.6665 9.61626 2.2665 8.67459C1.8665 7.72459 1.6665 6.81626 1.6665 5.94959C1.6665 5.38293 1.7665 4.84126 1.9665 4.34126C2.1665 3.83293 2.48317 3.36626 2.92484 2.94959C3.45817 2.42459 4.0415 2.16626 4.65817 2.16626C4.8915 2.16626 5.12484 2.21626 5.33317 2.31626C5.54984 2.41626 5.7415 2.56626 5.8915 2.78293L7.82484 5.50793C7.97484 5.71626 8.08317 5.90793 8.15817 6.09126C8.23317 6.26626 8.27484 6.44126 8.27484 6.59959C8.27484 6.79959 8.2165 6.99959 8.09984 7.19126C7.9915 7.38293 7.83317 7.58293 7.63317 7.78293L6.99984 8.44126C6.90817 8.53293 6.8665 8.64126 6.8665 8.77459C6.8665 8.84126 6.87484 8.89959 6.8915 8.96626C6.9165 9.03293 6.9415 9.08293 6.95817 9.13293C7.10817 9.40793 7.3665 9.76626 7.73317 10.1996C8.10817 10.6329 8.50817 11.0746 8.9415 11.5163C9.3915 11.9579 9.82484 12.3663 10.2665 12.7413C10.6998 13.1079 11.0582 13.3579 11.3415 13.5079C11.3832 13.5246 11.4332 13.5496 11.4915 13.5746C11.5582 13.5996 11.6248 13.6079 11.6998 13.6079C11.8415 13.6079 11.9498 13.5579 12.0415 13.4663L12.6748 12.8413C12.8832 12.6329 13.0832 12.4746 13.2748 12.3746C13.4665 12.2579 13.6582 12.1996 13.8665 12.1996C14.0248 12.1996 14.1915 12.2329 14.3748 12.3079C14.5582 12.3829 14.7498 12.4913 14.9582 12.6329L17.7165 14.5913C17.9332 14.7413 18.0832 14.9163 18.1748 15.1246C18.2582 15.3329 18.3082 15.5413 18.3082 15.7746Z" fill="#2E8EC7"/>
</g>
</g>
</g>
</g>
</svg>
