<svg width="24" height="24" viewBox="0 0 24 24" fill="none" xmlns="http://www.w3.org/2000/svg">
<path d="M3.79289 18.7929C3.40237 19.1834 3.40237 19.8166 3.79289 20.2071C4.18342 20.5976 4.81658 20.5976 5.20711 20.2071L3.79289 18.7929ZM20.5 4.5C20.5 3.94772 20.0523 3.5 19.5 3.5L10.5 3.5C9.94772 3.5 9.5 3.94772 9.5 4.5C9.5 5.05229 9.94772 5.5 10.5 5.5H18.5V13.5C18.5 14.0523 18.9477 14.5 19.5 14.5C20.0523 14.5 20.5 14.0523 20.5 13.5L20.5 4.5ZM5.20711 20.2071L20.2071 5.20711L18.7929 3.79289L3.79289 18.7929L5.20711 20.2071Z" fill="#F9F9F9"/>
</svg>
