<svg width="32" height="32" viewBox="0 0 32 32" fill="none" xmlns="http://www.w3.org/2000/svg">
<path d="M13.0289 5.59985H7.45748C6.43181 5.59985 5.60034 6.43132 5.60034 7.457V13.0284C5.60034 14.0541 6.43181 14.8856 7.45748 14.8856H13.0289C14.0546 14.8856 14.8861 14.0541 14.8861 13.0284V7.457C14.8861 6.43132 14.0546 5.59985 13.0289 5.59985Z" fill="#F3F3F3"/>
<path d="M23.6141 5.59985H18.0427C17.017 5.59985 16.1855 6.43132 16.1855 7.457V13.0284C16.1855 14.0541 17.017 14.8856 18.0427 14.8856H23.6141C24.6398 14.8856 25.4713 14.0541 25.4713 13.0284V7.457C25.4713 6.43132 24.6398 5.59985 23.6141 5.59985Z" fill="#F3F3F3"/>
<path d="M13.0287 16.1859H7.45724C6.43157 16.1859 5.6001 17.0174 5.6001 18.0431V23.6145C5.6001 24.6402 6.43157 25.4716 7.45724 25.4716H13.0287C14.0543 25.4716 14.8858 24.6402 14.8858 23.6145V18.0431C14.8858 17.0174 14.0543 16.1859 13.0287 16.1859Z" fill="#F3F3F3"/>
<path d="M23.6141 16.1859H18.0427C17.017 16.1859 16.1855 17.0174 16.1855 18.0431V23.6145C16.1855 24.6402 17.017 25.4716 18.0427 25.4716H23.6141C24.6398 25.4716 25.4713 24.6402 25.4713 23.6145V18.0431C25.4713 17.0174 24.6398 16.1859 23.6141 16.1859Z" fill="#F3F3F3"/>
</svg>
