<svg width="32" height="32" viewBox="0 0 32 32" fill="none" xmlns="http://www.w3.org/2000/svg">
<path fill-rule="evenodd" clip-rule="evenodd" d="M7.78255 9.12834L9.54697 12.6568H16.0004H22.4538L24.2183 9.12834L25.9827 5.59985H16.0004H6.01812L7.78255 9.12834ZM5.60296 16.4293L5.6004 26.3999L7.27109 25.0648L8.94177 23.7298L8.93996 18.4138L8.93815 13.0979L7.27183 9.77832L5.60551 6.45876L5.60296 16.4293ZM24.7172 9.80163L23.0575 13.1213L23.0583 18.4255L23.059 23.7298L24.7297 25.0648L26.4004 26.3999V16.4409C26.4004 10.9635 26.3951 6.48197 26.3887 6.48197C26.3822 6.48197 25.63 7.97582 24.7172 9.80163ZM7.8436 6.76068C7.72739 6.80771 7.64326 6.94291 7.64326 7.08265C7.64326 7.13549 8.16595 8.22393 8.80481 9.50138C9.76407 11.4196 9.98693 11.8319 10.0846 11.869C10.2454 11.9301 21.7554 11.9301 21.9162 11.869C22.0139 11.8319 22.2367 11.4196 23.196 9.50138C23.8349 8.22393 24.3575 7.12876 24.3575 7.06766C24.3575 7.00651 24.3176 6.9072 24.2688 6.84694L24.18 6.73733L16.0625 6.72846C11.4408 6.7234 7.90136 6.73728 7.8436 6.76068ZM8.61826 7.47979C8.61826 7.49233 8.77988 7.82661 8.97739 8.22263L9.33651 8.94263H12.4827H15.629V8.19979V7.45695H12.1236C10.1957 7.45695 8.61826 7.46721 8.61826 7.47979ZM16.3718 8.19979V8.94263H19.5181H22.6643L23.0234 8.22263C23.2209 7.82661 23.3825 7.49233 23.3825 7.47979C23.3825 7.46721 21.8051 7.45695 19.8772 7.45695H16.3718V8.19979ZM9.73255 9.70831C9.73255 9.72085 9.89416 10.0551 10.0917 10.4511L10.4508 11.1711H13.0399H15.629V10.4283V9.68547H12.6808C11.0592 9.68547 9.73255 9.69573 9.73255 9.70831ZM16.3718 10.4283V11.1711H18.9609H21.55L21.9091 10.4511C22.1066 10.0551 22.2683 9.72085 22.2683 9.70831C22.2683 9.69573 20.9416 9.68547 19.32 9.68547H16.3718V10.4283ZM9.68612 18.4138V23.428H16.0004H22.3147V18.4138V13.3997H16.0004H9.68612V18.4138Z" fill="#F3F3F3"/>
</svg>
