<svg width="44" height="44" viewBox="0 0 44 44" fill="none" xmlns="http://www.w3.org/2000/svg">
<path d="M36.8526 16.4597C43.2161 25.3612 38.348 35.5569 35.9935 39.5341C35.6482 40.0904 35.1845 40.5651 34.6349 40.925C34.0853 41.2849 33.4631 41.5212 32.8117 41.6174C28.1982 42.4066 16.712 43.2904 10.5394 34.3889C4.46225 25.9925 4.71679 11.2199 5.25769 4.18077C5.27901 3.65633 5.42558 3.14442 5.68533 2.68716C5.94507 2.22991 6.31056 1.84039 6.75171 1.55068C7.19287 1.26096 7.69707 1.07932 8.22282 1.02072C8.74857 0.962123 9.28083 1.02823 9.77578 1.21361C16.6166 3.17067 30.8708 8.06332 36.8526 16.4597Z" fill="#2E8EC7"/>
<path d="M15.4077 13.5247C22.6956 22.045 29.092 31.278 34.4983 41.0813L15.4077 13.5247Z" fill="#F3F3F3"/>
<path d="M15.4077 13.5247C22.6956 22.045 29.092 31.278 34.4983 41.0813" stroke="#F3F3F3" stroke-width="2" stroke-linecap="round" stroke-linejoin="round"/>
</svg>
