<svg width="44" height="44" viewBox="0 0 44 44" fill="none" xmlns="http://www.w3.org/2000/svg">
<path d="M34.862 2.47448C33.7922 1.47833 32.4231 1 31.0433 1C29.49 1 27.9214 1.60589 26.7518 2.76452L26.2499 3.26107L25.748 2.763C24.5785 1.60589 23.0098 1 21.4566 1C20.0767 1 18.7076 1.47833 17.6378 2.47448C15.2849 4.6657 15.2435 8.33141 17.512 10.5758L26.2499 19.2207L34.9879 10.5758C37.2564 8.33141 37.2149 4.6657 34.862 2.47448ZM43.4388 23.6229C42.0958 22.7224 40.5133 22.9775 39.112 23.7778C37.7107 24.578 29.665 31.384 29.665 31.384L21.7451 31.3856C21.3768 31.3856 20.9777 30.9756 20.9777 30.6126C20.9777 30.1859 21.3537 29.8534 21.7451 29.8534H26.5907C28.2867 29.8534 30.1853 28.76 30.1853 26.8163C30.1853 24.7511 28.2867 23.7793 26.5907 23.7793C23.6483 23.7793 23.0758 23.7914 23.0758 23.7914C21.8971 23.7914 20.7014 23.7216 19.7805 23.2341C18.5526 22.6116 17.1375 22.2593 15.6272 22.2593C13.0916 22.2593 10.8215 23.26 9.2652 24.8377L1 32.8889L10.2091 42L13.2789 38.963H28.8223C30.3691 38.9629 31.8622 38.4016 33.0186 37.3852L43.5432 25.7048C44.1863 25.1399 44.1494 24.1012 43.4388 23.6229Z" fill="#2E8EC7"/>
</svg>
