<svg width="20" height="16" viewBox="0 0 20 16" fill="none" xmlns="http://www.w3.org/2000/svg">
<g id="Group">
<g id="Group_2">
<path id="Vector" d="M11.6714 10.2433C11.1739 10.575 10.5959 10.7504 10 10.7504C9.40414 10.7504 8.82617 10.575 8.32859 10.2433L0.133164 4.77951C0.087922 4.74926 0.0435173 4.71778 0 4.6851L0 13.6381C0 14.6646 0.833008 15.4792 1.84113 15.4792H18.1588C19.1853 15.4792 20 14.6462 20 13.6381V4.68506C19.9564 4.71783 19.9119 4.74938 19.8665 4.77967L11.6714 10.2433Z" fill="#2E8EC7"/>
<path id="Vector_2" d="M0.783204 3.80438L8.97863 9.26821C9.28887 9.47504 9.64441 9.57844 9.99996 9.57844C10.3555 9.57844 10.7111 9.475 11.0214 9.26821L19.2168 3.80438C19.7072 3.47762 20 2.93074 20 2.34051C20 1.32563 19.1743 0.5 18.1595 0.5H1.84051C0.825665 0.500039 9.68791e-07 1.32566 9.68791e-07 2.34148C-0.000303273 2.63102 0.0710559 2.91613 0.207714 3.17138C0.344372 3.42664 0.54208 3.6441 0.783204 3.80438Z" fill="#2E8EC7"/>
</g>
</g>
</svg>
