<svg width="24" height="24" viewBox="0 0 24 24" fill="none" xmlns="http://www.w3.org/2000/svg">
<path d="M23 13C23.5523 13 24 12.5523 24 12C24 11.4477 23.5523 11 23 11V13ZM1.07969 11.2929C0.689165 11.6834 0.689165 12.3166 1.07969 12.7071L7.44365 19.0711C7.83418 19.4616 8.46734 19.4616 8.85786 19.0711C9.24839 18.6805 9.24839 18.0474 8.85786 17.6569L3.20101 12L8.85786 6.34315C9.24839 5.95262 9.24839 5.31946 8.85786 4.92893C8.46734 4.53841 7.83418 4.53841 7.44365 4.92893L1.07969 11.2929ZM23 11L1.7868 11V13L23 13V11Z" fill="#28292E"/>
</svg>
