<svg width="12" height="12" viewBox="0 0 12 12" fill="none" xmlns="http://www.w3.org/2000/svg">
<path d="M0.5 5.5C0.223858 5.5 2.98023e-08 5.72386 2.98023e-08 6C2.98023e-08 6.27614 0.223858 6.5 0.5 6.5V5.5ZM11.4602 6.35355C11.6554 6.15829 11.6554 5.84171 11.4602 5.64645L8.27817 2.46447C8.08291 2.2692 7.76633 2.2692 7.57107 2.46447C7.3758 2.65973 7.3758 2.97631 7.57107 3.17157L10.3995 6L7.57107 8.82843C7.3758 9.02369 7.3758 9.34027 7.57107 9.53553C7.76633 9.7308 8.08291 9.7308 8.27817 9.53553L11.4602 6.35355ZM0.5 6.5L11.1066 6.5V5.5L0.5 5.5V6.5Z" fill="#BEBEBE"/>
</svg>
