<svg width="44" height="44" viewBox="0 0 44 44" fill="none" xmlns="http://www.w3.org/2000/svg">
<path d="M30.8897 5H24.5403C24.0143 5 23.5879 5.42641 23.5879 5.95241V7.85724C23.5879 8.38325 24.0143 8.80966 24.5403 8.80966H30.8897C31.4157 8.80966 31.8422 8.38325 31.8422 7.85724V5.95241C31.8422 5.42641 31.4157 5 30.8897 5Z" fill="#2E8EC7"/>
<path d="M12.4766 18.9688H6.12713C5.87453 18.9688 5.63228 19.0691 5.45367 19.2478C5.27506 19.4264 5.17472 19.6686 5.17472 19.9212C5.17472 20.1738 5.27506 20.4161 5.45367 20.5947C5.63228 20.7733 5.87453 20.8736 6.12713 20.8736H12.4766C12.7292 20.8736 12.9714 20.7733 13.15 20.5947C13.3286 20.4161 13.429 20.1738 13.429 19.9212C13.429 19.6686 13.3286 19.4264 13.15 19.2478C12.9714 19.0691 12.7292 18.9688 12.4766 18.9688ZM12.1591 27.5405C12.1591 27.2879 12.0587 27.0457 11.8801 26.8671C11.7015 26.6885 11.4593 26.5881 11.2067 26.5881H4.85724C4.60465 26.5881 4.3624 26.6885 4.18379 26.8671C4.00517 27.0457 3.90483 27.2879 3.90483 27.5405C3.90483 27.7931 4.00517 28.0354 4.18379 28.214C4.3624 28.3926 4.60465 28.493 4.85724 28.493H11.2067C11.4593 28.493 11.7015 28.3926 11.8801 28.214C12.0587 28.0354 12.1591 27.7931 12.1591 27.5405ZM11.8416 30.3978H7.39702C7.14442 30.3978 6.90217 30.4981 6.72356 30.6767C6.54495 30.8554 6.4446 31.0976 6.4446 31.3502C6.4446 31.6028 6.54495 31.845 6.72356 32.0237C6.90217 32.2023 7.14442 32.3026 7.39702 32.3026H11.8416C12.0942 32.3026 12.3365 32.2023 12.5151 32.0237C12.6937 31.845 12.794 31.6028 12.794 31.3502C12.794 31.0976 12.6937 30.8554 12.5151 30.6767C12.3365 30.4981 12.0942 30.3978 11.8416 30.3978ZM12.1591 23.7309C12.1591 23.4783 12.0587 23.236 11.8801 23.0574C11.7015 22.8788 11.4593 22.7785 11.2067 22.7785H2.95241C2.69982 22.7785 2.45757 22.8788 2.27896 23.0574C2.10034 23.236 2 23.4783 2 23.7309C2 23.9835 2.10034 24.2257 2.27896 24.4043C2.45757 24.583 2.69982 24.6833 2.95241 24.6833H11.2067C11.4593 24.6833 11.7015 24.583 11.8801 24.4043C12.0587 24.2257 12.1591 23.9835 12.1591 23.7309ZM27.7152 25.6357V14.8417C21.7633 14.8417 16.9212 19.6838 16.9212 25.6357C16.9212 31.5876 21.7633 36.4297 27.7152 36.4297C33.6671 36.4297 38.5092 31.5876 38.5092 25.6357H27.7152Z" fill="#2E8EC7"/>
<path d="M38.1617 15.9014L39.1829 14.8801C39.2725 14.7919 39.3438 14.6869 39.3926 14.571C39.4414 14.4552 39.4668 14.3308 39.4674 14.2051C39.4679 14.0794 39.4435 13.9548 39.3956 13.8385C39.3477 13.7223 39.2773 13.6166 39.1884 13.5277C39.0995 13.4388 38.9939 13.3684 38.8776 13.3205C38.7614 13.2727 38.6368 13.2483 38.5111 13.2488C38.3853 13.2493 38.261 13.2747 38.1451 13.3235C38.0292 13.3724 37.9242 13.4436 37.836 13.5333L36.7731 14.5961C34.7262 12.9098 32.2487 11.8293 29.6203 11.4764V9.76208H25.8106V11.4764C23.1822 11.8292 20.7047 12.9095 18.6577 14.5956L17.5948 13.5328C17.5067 13.4432 17.4016 13.3719 17.2857 13.3231C17.1699 13.2742 17.0455 13.2488 16.9198 13.2483C16.7941 13.2478 16.6695 13.2722 16.5532 13.3201C16.437 13.3679 16.3313 13.4384 16.2424 13.5273C16.1535 13.6162 16.0831 13.7218 16.0352 13.838C15.9874 13.9543 15.963 14.0789 15.9635 14.2046C15.964 14.3303 15.9894 14.4547 16.0382 14.5706C16.0871 14.6864 16.1583 14.7915 16.248 14.8796L17.2692 15.901C14.7994 18.5405 13.4266 22.0209 13.4292 25.6357C13.4292 33.5131 19.838 39.9219 27.7154 39.9219C35.5928 39.9219 42.0016 33.5131 42.0016 25.6357C42.0042 22.021 40.6313 18.5408 38.1617 15.9014ZM27.7154 37.3821C25.3922 37.3821 23.1211 36.6932 21.1894 35.4025C19.2578 34.1118 17.7522 32.2772 16.8631 30.1308C15.9741 27.9845 15.7414 25.6226 16.1947 23.344C16.6479 21.0655 17.7667 18.9724 19.4094 17.3297C21.0522 15.6869 23.1452 14.5682 25.4238 14.1149C27.7024 13.6617 30.0642 13.8943 32.2106 14.7834C34.357 15.6724 36.1915 17.178 37.4822 19.1097C38.773 21.0414 39.4619 23.3124 39.4619 25.6357C39.4619 27.1782 39.158 28.7057 38.5677 30.1308C37.9774 31.556 37.1122 32.8509 36.0214 33.9417C34.9307 35.0324 33.6357 35.8977 32.2106 36.488C30.7855 37.0783 29.258 37.3821 27.7154 37.3821Z" fill="#2E8EC7"/>
</svg>
