<svg width="32" height="32" viewBox="0 0 32 32" fill="none" xmlns="http://www.w3.org/2000/svg">
<path d="M19.0632 5.07299C19.0906 5.03849 19.1248 5.00993 19.1636 4.98904C19.2024 4.96815 19.245 4.95537 19.2889 4.95148C19.3328 4.94759 19.3771 4.95267 19.4189 4.9664C19.4608 4.98014 19.4995 5.00225 19.5325 5.03139L20.7298 6.08699L16.9611 10.7995H19.4584L22.1962 7.37789L24.3438 9.27199C24.4073 9.3281 24.4464 9.4068 24.4527 9.49131C24.459 9.57582 24.4321 9.65946 24.3776 9.72439L23.4806 10.7995H26.0078C26.3209 10.3412 26.4556 9.7843 26.3866 9.23361C26.3177 8.68292 26.0498 8.17643 25.6334 7.80949L20.8234 3.56759C20.5914 3.36323 20.3201 3.20832 20.0262 3.11232C19.7323 3.01631 19.4219 2.98123 19.1139 3.00921C18.806 3.0372 18.507 3.12766 18.2352 3.27507C17.9634 3.42248 17.7245 3.62375 17.5331 3.86659L12.0692 10.7995H14.5522L19.0632 5.07299ZM7.22542 10.1495C6.96683 10.1495 6.71883 10.2522 6.53599 10.4351C6.35314 10.6179 6.25042 10.8659 6.25042 11.1245C6.25042 11.3831 6.35314 11.6311 6.53599 11.8139C6.71883 11.9968 6.96683 12.0995 7.22542 12.0995H24.1254C25.246 12.0995 26.3206 12.5446 27.1129 13.337C27.9053 14.1293 28.3504 15.2039 28.3504 16.3245V24.7745C28.3504 25.895 27.9053 26.9697 27.1129 27.762C26.3206 28.5544 25.246 28.9995 24.1254 28.9995H8.52542C7.40488 28.9995 6.33023 28.5544 5.53789 27.762C4.74555 26.9697 4.30042 25.895 4.30042 24.7745V11.1245C4.30042 10.3487 4.60858 9.60474 5.15713 9.0562C5.70567 8.50766 6.44966 8.19949 7.22542 8.19949H12.8414L11.2918 10.1495H7.22542ZM20.5504 20.8745C20.5504 21.4127 20.9872 21.8495 21.5254 21.8495H24.1254C24.384 21.8495 24.632 21.7468 24.8148 21.5639C24.9977 21.3811 25.1004 21.1331 25.1004 20.8745C25.1004 20.6159 24.9977 20.3679 24.8148 20.1851C24.632 20.0022 24.384 19.8995 24.1254 19.8995H21.5254C21.2668 19.8995 21.0188 20.0022 20.836 20.1851C20.6531 20.3679 20.5504 20.6159 20.5504 20.8745Z" fill="#F3F3F3"/>
</svg>
