<svg width="40" height="41" viewBox="0 0 40 41" fill="none" xmlns="http://www.w3.org/2000/svg">
<g id="Social Icons">
<path id="Vector" d="M0 40.5L2.81166 30.2283C1.07666 27.2217 0.165 23.8133 0.166666 20.3183C0.171666 9.39167 9.06331 0.5 19.9883 0.5C25.2899 0.501667 30.2666 2.56667 34.0099 6.31333C37.7516 10.06 39.8116 15.04 39.8099 20.3367C39.8049 31.265 30.9133 40.1567 19.9883 40.1567C16.6716 40.155 13.4033 39.3233 10.5083 37.7433L0 40.5ZM10.995 34.155C13.7883 35.8133 16.455 36.8067 19.9816 36.8083C29.0616 36.8083 36.4583 29.4183 36.4633 20.3333C36.4666 11.23 29.1049 3.85 19.995 3.84667C10.9083 3.84667 3.51666 11.2367 3.51333 20.32C3.51166 24.0283 4.59832 26.805 6.42332 29.71L4.75832 35.79L10.995 34.155ZM29.9733 25.0483C29.8499 24.8417 29.5199 24.7183 29.0233 24.47C28.5283 24.2217 26.0933 23.0233 25.6383 22.8583C25.1849 22.6933 24.8549 22.61 24.5233 23.1067C24.1933 23.6017 23.2433 24.7183 22.9549 25.0483C22.6666 25.3783 22.3766 25.42 21.8816 25.1717C21.3866 24.9233 19.79 24.4017 17.8983 22.7133C16.4266 21.4 15.4316 19.7783 15.1433 19.2817C14.855 18.7867 15.1133 18.5183 15.36 18.2717C15.5833 18.05 15.855 17.6933 16.1033 17.4033C16.355 17.1167 16.4366 16.91 16.6033 16.5783C16.7683 16.2483 16.6866 15.9583 16.5616 15.71C16.4366 15.4633 15.4466 13.025 15.035 12.0333C14.6316 11.0683 14.2233 11.1983 13.92 11.1833L12.97 11.1667C12.64 11.1667 12.1033 11.29 11.65 11.7867C11.1966 12.2833 9.91664 13.48 9.91664 15.9183C9.91664 18.3567 11.6916 20.7117 11.9383 21.0417C12.1866 21.3717 15.43 26.375 20.3983 28.52C21.58 29.03 22.5033 29.335 23.2216 29.5633C24.4083 29.94 25.4883 29.8867 26.3416 29.76C27.2933 29.6183 29.2716 28.5617 29.6849 27.405C30.0983 26.2467 30.0983 25.255 29.9733 25.0483Z" fill="#2E8EC7"/>
</g>
</svg>
